<?xml version="1.0" encoding="UTF-8" standalone="no"?>
<!-- Created with Inkscape (http://www.inkscape.org/) -->

<svg
   xmlns:osb="http://www.openswatchbook.org/uri/2009/osb"
   xmlns:dc="http://purl.org/dc/elements/1.1/"
   xmlns:cc="http://creativecommons.org/ns#"
   xmlns:rdf="http://www.w3.org/1999/02/22-rdf-syntax-ns#"
   xmlns:svg="http://www.w3.org/2000/svg"
   xmlns="http://www.w3.org/2000/svg"
   xmlns:sodipodi="http://sodipodi.sourceforge.net/DTD/sodipodi-0.dtd"
   xmlns:inkscape="http://www.inkscape.org/namespaces/inkscape"
   width="210mm"
   height="297mm"
   viewBox="0 0 210 297"
   version="1.1"
   id="svg15529"
   inkscape:version="0.92.4 (5da689c313, 2019-01-14)"
   sodipodi:docname="logo.svg"
   inkscape:export-filename="/home/edwinspire/Documentos/Desarrollo/open-monitoring-system/static/favicon/logo.svg.png"
   inkscape:export-xdpi="700.13269"
   inkscape:export-ydpi="700.13269">
  <defs
     id="defs15523">
    <linearGradient
       id="linearGradient16142"
       osb:paint="solid">
      <stop
         style="stop-color:#0000a4;stop-opacity:1;"
         offset="0"
         id="stop16140" />
    </linearGradient>
    <clipPath
       clipPathUnits="userSpaceOnUse"
       id="clipPath120">
      <path
         d="m 5168.54,4251.13 c -42.49,116.3 -146.34,221.2 -264.16,256.4 -82.54,24.66 -186.68,62.17 -261.65,-0.37 9.63,66.77 48.18,110.71 113.64,125.75 -70.51,104.71 128.97,120.88 184.97,123.13 27.2,1.09 75.43,-7.33 94.42,18.85 69.06,95.15 -81.45,182.25 -121.27,195.62 -250.02,83.87 -853.31,6.29 -1071.29,10.82 37.8,-20.45 73.37,-56.42 106.25,-96.91 l 600.26,4.1 -561.16,-55.5 c 20.12,-27.92 38.95,-55.81 56.39,-80.67 l 507.31,3.47 -476.96,-47.18 c 18.76,-28.69 35.68,-58.55 52.54,-88.43 l 426.99,2.91 -405.78,-40.15 c 19.04,-32.79 39.08,-64.97 62.71,-94.92 l 345.63,2.37 -321.25,-31.78 c 114.3,-131.28 182.8,-115.65 357.64,-125.03 114.58,-6.15 262.73,-10.18 359.67,-77.12 106.54,-73.61 193.01,-151.78 236.97,-274.57 18.59,80.64 6.13,192.58 -21.87,269.21"
         id="path118"
         inkscape:connector-curvature="0" />
    </clipPath>
    <clipPath
       clipPathUnits="userSpaceOnUse"
       id="clipPath110">
      <path
         d="m 4889.29,4639.42 h -93.16 c 0,0 43.95,53.11 93.16,0"
         id="path108"
         inkscape:connector-curvature="0" />
    </clipPath>
    <clipPath
       clipPathUnits="userSpaceOnUse"
       id="clipPath70">
      <path
         d="m 5207.96,3939.93 c 0,-48.73 -242.67,-88.23 -542.01,-88.23 -299.35,0 -542.02,39.5 -542.02,88.23 0,48.74 242.67,88.24 542.02,88.24 299.34,0 542.01,-39.5 542.01,-88.24"
         id="path68"
         inkscape:connector-curvature="0" />
    </clipPath>
    <filter
       inkscape:label="Film Grain"
       inkscape:menu="Image Effects"
       inkscape:menu-tooltip="Adds a small scale graininess"
       style="color-interpolation-filters:sRGB;"
       id="filter16440">
      <feTurbulence
         type="fractalNoise"
         numOctaves="3"
         baseFrequency="1"
         seed="0"
         result="result0"
         id="feTurbulence16430" />
      <feColorMatrix
         result="result4"
         values="0"
         type="saturate"
         id="feColorMatrix16432" />
      <feComposite
         in="SourceGraphic"
         in2="result4"
         operator="arithmetic"
         k1="1.25"
         k2="0.5"
         k3="0.5"
         result="result2"
         id="feComposite16434" />
      <feBlend
         result="result5"
         mode="normal"
         in="result2"
         in2="SourceGraphic"
         id="feBlend16436" />
      <feComposite
         in="result5"
         in2="SourceGraphic"
         operator="in"
         result="result3"
         id="feComposite16438" />
    </filter>
    <filter
       inkscape:label="Film Grain"
       inkscape:menu="Image Effects"
       inkscape:menu-tooltip="Adds a small scale graininess"
       style="color-interpolation-filters:sRGB;"
       id="filter16590">
      <feTurbulence
         type="fractalNoise"
         numOctaves="3"
         baseFrequency="1"
         seed="0"
         result="result0"
         id="feTurbulence16580" />
      <feColorMatrix
         result="result4"
         values="0"
         type="saturate"
         id="feColorMatrix16582" />
      <feComposite
         in="SourceGraphic"
         in2="result4"
         operator="arithmetic"
         k1="1.25"
         k2="0.5"
         k3="0.5"
         result="result2"
         id="feComposite16584" />
      <feBlend
         result="result5"
         mode="normal"
         in="result2"
         in2="SourceGraphic"
         id="feBlend16586" />
      <feComposite
         in="result5"
         in2="SourceGraphic"
         operator="in"
         result="result3"
         id="feComposite16588" />
    </filter>
  </defs>
  <sodipodi:namedview
     id="base"
     pagecolor="#ffffff"
     bordercolor="#666666"
     borderopacity="1.0"
     inkscape:pageopacity="0.0"
     inkscape:pageshadow="2"
     inkscape:zoom="2.8177596"
     inkscape:cx="26.919046"
     inkscape:cy="1031.2981"
     inkscape:document-units="mm"
     inkscape:current-layer="layer1"
     showgrid="false"
     inkscape:window-width="1364"
     inkscape:window-height="693"
     inkscape:window-x="0"
     inkscape:window-y="26"
     inkscape:window-maximized="1" />
  <metadata
     id="metadata15526">
    <rdf:RDF>
      <cc:Work
         rdf:about="">
        <dc:format>image/svg+xml</dc:format>
        <dc:type
           rdf:resource="http://purl.org/dc/dcmitype/StillImage" />
        <dc:title />
      </cc:Work>
    </rdf:RDF>
  </metadata>
  <g
     inkscape:label="Capa 1"
     inkscape:groupmode="layer"
     id="layer1">
    <g
       style="fill:#000046;fill-opacity:1;paint-order:stroke fill markers"
       id="g64"
       transform="matrix(0.03527778,0,0,-0.03527778,-130.17027,183.43005)">
      <g
         style="fill:#000046;fill-opacity:1;paint-order:stroke fill markers"
         clip-path="url(#clipPath70)"
         id="g66" />
    </g>
    <g
       style="fill:#ff7900;fill-opacity:1;paint-order:stroke fill markers;filter:url(#filter16590)"
       id="g104"
       transform="matrix(0.03527778,0,0,-0.03527778,-130.17027,183.43005)">
      <g
         style="fill:#ff7900;fill-opacity:1;paint-order:stroke fill markers"
         clip-path="url(#clipPath110)"
         id="g106">
        <path
           style="fill:#ff7900;fill-opacity:1;paint-order:stroke fill markers"
           inkscape:connector-curvature="0"
           id="path112"
           d="m 4889.29,4639.42 h -93.16 c 0,0 43.95,53.11 93.16,0" />
      </g>
    </g>
    <g
       transform="matrix(0.03525846,0.00116752,0.00116752,-0.03525846,-135.33182,178.06458)"
       id="g114"
       style="fill-opacity:1;paint-order:stroke fill markers;fill:#000043;opacity:1;filter:url(#filter16440)">
      <g
         id="g116"
         clip-path="url(#clipPath120)"
         style="fill-opacity:1;paint-order:stroke fill markers;fill:#000043;opacity:1">
        <path
           d="m 5168.54,4251.13 c -42.49,116.3 -146.34,221.2 -264.16,256.4 -82.54,24.66 -186.68,62.17 -261.65,-0.37 9.63,66.77 48.18,110.71 113.64,125.75 -70.51,104.71 128.97,120.88 184.97,123.13 27.2,1.09 75.43,-7.33 94.42,18.85 69.06,95.15 -81.45,182.25 -121.27,195.62 -250.02,83.87 -853.31,6.29 -1071.29,10.82 37.8,-20.45 73.37,-56.42 106.25,-96.91 l 600.26,4.1 -561.16,-55.5 c 20.12,-27.92 38.95,-55.81 56.39,-80.67 l 507.31,3.47 -476.96,-47.18 c 18.76,-28.69 35.68,-58.55 52.54,-88.43 l 426.99,2.91 -405.78,-40.15 c 19.04,-32.79 39.08,-64.97 62.71,-94.92 l 345.63,2.37 -321.25,-31.78 c 114.3,-131.28 182.8,-115.65 357.64,-125.03 114.58,-6.15 262.73,-10.18 359.67,-77.12 106.54,-73.61 193.01,-151.78 236.97,-274.57 18.59,80.64 6.13,192.58 -21.87,269.21"
           id="path122"
           inkscape:connector-curvature="0"
           style="fill-opacity:1;paint-order:stroke fill markers;fill:#000043;opacity:1" />
      </g>
    </g>
  </g>
</svg>
